<svg width="158" height="79" viewBox="0 0 158 79" fill="none" xmlns="http://www.w3.org/2000/svg">
<path fill-rule="evenodd" clip-rule="evenodd" d="M69.3308 4.5758C69.3308 2.04866 71.4953 0 74.1654 0H83.8346C86.5047 0 88.6692 2.04866 88.6692 4.5758V14.5594C88.6692 17.0865 86.5047 19.1352 83.8346 19.1352H74.1654C71.4953 19.1352 69.3308 17.0865 69.3308 14.5594V4.5758ZM74.1654 2.49589C72.9517 2.49589 71.9678 3.4271 71.9678 4.5758V8.31964H86.0322V4.5758C86.0322 3.4271 85.0483 2.49589 83.8346 2.49589H74.1654ZM86.0322 10.8155H71.9678V14.5594C71.9678 15.7081 72.9517 16.6393 74.1654 16.6393H83.8346C85.0483 16.6393 86.0322 15.7081 86.0322 14.5594V10.8155Z" fill="black"/>
<path fill-rule="evenodd" clip-rule="evenodd" d="M79 7.48768C79.7282 7.48768 80.3185 8.0464 80.3185 8.73563V18.7192C80.3185 19.4084 79.7282 19.9671 79 19.9671C78.2718 19.9671 77.6815 19.4084 77.6815 18.7192V8.73563C77.6815 8.0464 78.2718 7.48768 79 7.48768Z" fill="black"/>
<path d="M80.758 5.46019C80.758 6.37915 79.9709 7.12412 79 7.12412C78.0291 7.12412 77.242 6.37915 77.242 5.46019C77.242 4.54123 78.0291 3.79626 79 3.79626C79.9709 3.79626 80.758 4.54123 80.758 5.46019Z" fill="black"/>
<path d="M7.95071 37.3685H0.468488V33.1954H20.8442V37.3685H13.362V55.3256H7.95071V37.3685Z" fill="black"/>
<path d="M39.1648 46.8845C39.1648 46.9478 39.1314 47.3904 39.0646 48.2123H25.4697C25.7146 49.2662 26.2936 50.0987 27.2066 50.7099C28.1196 51.3211 29.2553 51.6267 30.6137 51.6267C31.549 51.6267 32.3729 51.5003 33.0855 51.2473C33.8204 50.9733 34.4995 50.5518 35.1231 49.9828L37.8955 52.8281C36.2031 54.6617 33.7313 55.5785 30.4801 55.5785C28.4537 55.5785 26.661 55.2097 25.1022 54.472C23.5434 53.7133 22.3409 52.67 21.4947 51.3422C20.6485 50.0144 20.2254 48.5074 20.2254 46.8213C20.2254 45.1562 20.6374 43.6598 21.4613 42.332C22.3075 40.9831 23.4544 39.9398 24.9018 39.2022C26.3715 38.4434 28.0083 38.064 29.812 38.064C31.5712 38.064 33.1634 38.4223 34.5886 39.1389C36.0138 39.8555 37.1272 40.8883 37.9289 42.2372C38.7528 43.565 39.1648 45.1141 39.1648 46.8845ZM29.8454 41.7946C28.6652 41.7946 27.6743 42.1107 26.8726 42.743C26.0709 43.3753 25.581 44.2394 25.4029 45.3354H34.2546C34.0765 44.2605 33.5865 43.4069 32.7849 42.7746C31.9832 42.1212 31.0034 41.7946 29.8454 41.7946Z" fill="black"/>
<path d="M42.634 31.8676H47.8448V55.3256H42.634V31.8676Z" fill="black"/>
<path d="M70.2842 46.8845C70.2842 46.9478 70.2508 47.3904 70.184 48.2123H56.589C56.834 49.2662 57.413 50.0987 58.326 50.7099C59.239 51.3211 60.3747 51.6267 61.7331 51.6267C62.6683 51.6267 63.4923 51.5003 64.2049 51.2473C64.9397 50.9733 65.6189 50.5518 66.2424 49.9828L69.0149 52.8281C67.3225 54.6617 64.8507 55.5785 61.5995 55.5785C59.573 55.5785 57.7804 55.2097 56.2216 54.472C54.6628 53.7133 53.4603 52.67 52.6141 51.3422C51.7679 50.0144 51.3448 48.5074 51.3448 46.8213C51.3448 45.1562 51.7568 43.6598 52.5807 42.332C53.4269 40.9831 54.5737 39.9398 56.0212 39.2022C57.4909 38.4434 59.1277 38.064 60.9314 38.064C62.6906 38.064 64.2828 38.4223 65.708 39.1389C67.1332 39.8555 68.2466 40.8883 69.0483 42.2372C69.8722 43.565 70.2842 45.1141 70.2842 46.8845ZM60.9648 41.7946C59.7846 41.7946 58.7936 42.1107 57.992 42.743C57.1903 43.3753 56.7004 44.2394 56.5222 45.3354H65.374C65.1958 44.2605 64.7059 43.4069 63.9042 42.7746C63.1026 42.1212 62.1228 41.7946 60.9648 41.7946Z" fill="black"/>
<path d="M85.3107 55.705C82.928 55.705 80.7679 55.2202 78.8306 54.2507C76.9155 53.2601 75.4012 51.9007 74.2878 50.1724C73.1967 48.4231 72.6511 46.4524 72.6511 44.2605C72.6511 42.0686 73.1967 40.1084 74.2878 38.3802C75.4012 36.6308 76.9155 35.2714 78.8306 34.3019C80.7679 33.3113 82.9391 32.816 85.3441 32.816C87.3706 32.816 89.1966 33.1532 90.8222 33.8277C92.47 34.5021 93.8507 35.4716 94.9641 36.7362L91.4902 39.7712C89.9092 38.043 87.9495 37.1788 85.6113 37.1788C84.1639 37.1788 82.8723 37.4844 81.7366 38.0956C80.6009 38.6858 79.7102 39.5183 79.0644 40.5932C78.4409 41.6681 78.1291 42.8905 78.1291 44.2605C78.1291 45.6305 78.4409 46.8529 79.0644 47.9278C79.7102 49.0027 80.6009 49.8458 81.7366 50.457C82.8723 51.0471 84.1639 51.3422 85.6113 51.3422C87.9495 51.3422 89.9092 50.4675 91.4902 48.7182L94.9641 51.7532C93.8507 53.0388 92.47 54.0189 90.8222 54.6933C89.1743 55.3678 87.3372 55.705 85.3107 55.705Z" fill="black"/>
<path d="M103.228 40.5616C103.851 39.7396 104.686 39.1179 105.733 38.6963C106.802 38.2748 108.027 38.064 109.407 38.064V42.6165C108.828 42.5744 108.439 42.5533 108.238 42.5533C106.746 42.5533 105.577 42.9538 104.731 43.7547C103.885 44.5345 103.462 45.7148 103.462 47.2955V55.3256H98.2509V38.3169H103.228V40.5616Z" fill="black"/>
<path d="M119.656 38.064C122.44 38.064 124.578 38.6963 126.07 39.9609C127.562 41.2044 128.308 43.0908 128.308 45.6199V55.3256H123.431V53.2074C122.451 54.7882 120.625 55.5785 117.953 55.5785C116.572 55.5785 115.37 55.3572 114.345 54.9146C113.343 54.472 112.575 53.8608 112.04 53.081C111.506 52.3012 111.239 51.416 111.239 50.4254C111.239 48.8446 111.862 47.6011 113.109 46.6948C114.379 45.7885 116.327 45.3354 118.955 45.3354H123.097C123.097 44.2605 122.752 43.4385 122.061 42.8695C121.371 42.2793 120.336 41.9842 118.955 41.9842C117.997 41.9842 117.051 42.1318 116.116 42.4269C115.203 42.7008 114.423 43.0802 113.777 43.565L111.907 40.119C112.887 39.4656 114.056 38.9598 115.414 38.6015C116.795 38.2432 118.209 38.064 119.656 38.064ZM119.255 52.259C120.146 52.259 120.937 52.0693 121.627 51.6899C122.317 51.2895 122.807 50.7099 123.097 49.9511V48.2123H119.523C117.385 48.2123 116.316 48.8762 116.316 50.2041C116.316 50.8363 116.572 51.3422 117.084 51.7216C117.619 52.0799 118.342 52.259 119.255 52.259Z" fill="black"/>
<path d="M138.736 38.6963H143.345V42.4901H138.869V55.3256H133.658V42.4901H130.886V38.6963H133.658V37.9376C133.658 35.9985 134.26 34.46 135.462 33.3218C136.687 32.1837 138.402 31.6146 140.606 31.6146C141.386 31.6146 142.12 31.6989 142.811 31.8676C143.523 32.0151 144.113 32.2364 144.581 32.5315L143.212 36.1039C142.61 35.7035 141.909 35.5032 141.107 35.5032C139.526 35.5032 138.736 36.3252 138.736 37.9692V38.6963Z" fill="black"/>
<path d="M157.532 54.5036C157.02 54.8619 156.385 55.1359 155.628 55.3256C154.893 55.4942 154.114 55.5785 153.29 55.5785C151.152 55.5785 149.493 55.0622 148.313 54.0294C147.155 52.9967 146.576 51.4792 146.576 49.4769V42.4901H143.803V38.6963H146.576V34.5548H151.787V38.6963H156.263V42.4901H151.787V49.4137C151.787 50.1303 151.976 50.6888 152.354 51.0893C152.755 51.4686 153.312 51.6583 154.025 51.6583C154.849 51.6583 155.55 51.4476 156.129 51.026L157.532 54.5036Z" fill="black"/>
<path fill-rule="evenodd" clip-rule="evenodd" d="M0 72.3443C0 71.4253 0.787101 70.6804 1.75804 70.6804H50.9832C51.9541 70.6804 52.7412 71.4253 52.7412 72.3443C52.7412 73.2632 51.9541 74.0082 50.9832 74.0082H1.75804C0.787101 74.0082 0 73.2632 0 72.3443ZM105.259 72.3443C105.259 71.4253 106.046 70.6804 107.017 70.6804H156.242C157.213 70.6804 158 71.4253 158 72.3443C158 73.2632 157.213 74.0082 156.242 74.0082H107.017C106.046 74.0082 105.259 73.2632 105.259 72.3443Z" fill="black"/>
<path d="M62.4632 76.5041H56.7495L55.6595 79H52.7412L58.2263 67.3525H61.0392L66.5418 79H63.5532L62.4632 76.5041ZM61.5666 74.4575L59.6151 69.9981L57.6637 74.4575H61.5666Z" fill="black"/>
<path d="M78.4196 67.3525C79.5096 67.3525 80.453 67.5244 81.25 67.8683C82.0587 68.2122 82.6799 68.7003 83.1135 69.3326C83.5472 69.9649 83.764 70.7136 83.764 71.5789C83.764 72.433 83.5472 73.1818 83.1135 73.8252C82.6799 74.4575 82.0587 74.9456 81.25 75.2894C80.453 75.6222 79.5096 75.7886 78.4196 75.7886H75.9407V79H73.0927V67.3525H78.4196ZM78.2614 73.5922C79.1169 73.5922 79.7674 73.4203 80.2128 73.0764C80.6581 72.7214 80.8808 72.2223 80.8808 71.5789C80.8808 70.9244 80.6581 70.4252 80.2128 70.0813C79.7674 69.7264 79.1169 69.5489 78.2614 69.5489H75.9407V73.5922H78.2614Z" fill="black"/>
<path d="M96.3983 67.3525C97.4883 67.3525 98.4317 67.5244 99.2287 67.8683C100.037 68.2122 100.659 68.7003 101.092 69.3326C101.526 69.9649 101.743 70.7136 101.743 71.5789C101.743 72.433 101.526 73.1818 101.092 73.8252C100.659 74.4575 100.037 74.9456 99.2287 75.2894C98.4317 75.6222 97.4883 75.7886 96.3983 75.7886H93.9194V79H91.0714V67.3525H96.3983ZM96.2401 73.5922C97.0956 73.5922 97.7461 73.4203 98.1915 73.0764C98.6369 72.7214 98.8595 72.2223 98.8595 71.5789C98.8595 70.9244 98.6369 70.4252 98.1915 70.0813C97.7461 69.7264 97.0956 69.5489 96.2401 69.5489H93.9194V73.5922H96.2401Z" fill="black"/>
</svg>
