<svg width="13" height="13" viewBox="0 0 13 13" fill="none" xmlns="http://www.w3.org/2000/svg">
<path d="M9.2085 1.625C9.35076 1.48274 9.51966 1.36988 9.70553 1.29289C9.89141 1.2159 10.0906 1.17627 10.2918 1.17627C10.493 1.17627 10.6922 1.2159 10.8781 1.29289C11.064 1.36988 11.2329 1.48274 11.3752 1.625C11.5174 1.76727 11.6303 1.93616 11.7073 2.12204C11.7843 2.30792 11.8239 2.50714 11.8239 2.70833C11.8239 2.90953 11.7843 3.10875 11.7073 3.29463C11.6303 3.48051 11.5174 3.6494 11.3752 3.79167L4.06266 11.1042L1.0835 11.9167L1.896 8.9375L9.2085 1.625Z" stroke="white" stroke-linecap="round" stroke-linejoin="round"/>
</svg>
