<svg width="19" height="21" viewBox="0 0 19 21" fill="none" xmlns="http://www.w3.org/2000/svg">
<path d="M14.6015 6.35811C14.6016 5.08508 14.11 3.86416 13.2348 2.96394C12.3597 2.06373 11.1727 1.55797 9.93506 1.55792C8.69738 1.55786 7.51038 2.06352 6.63517 2.96366C5.75996 3.8638 5.26824 5.08468 5.26819 6.35772C5.26795 11.9577 2.93455 13.5576 2.93455 13.5576L16.9345 13.5582C16.9345 13.5582 14.6013 11.9581 14.6015 6.35811Z" stroke="#636D77" stroke-width="2" stroke-linecap="round" stroke-linejoin="round"/>
<path d="M10.9346 17.5579C10.8329 17.8621 10.6871 18.1146 10.5115 18.2901C10.336 18.4655 10.1371 18.5579 9.93453 18.5579C9.732 18.5579 9.53302 18.4655 9.35753 18.29C9.18204 18.1145 9.03618 17.862 8.93457 17.5579" stroke="#636D77" stroke-width="2" stroke-linecap="round" stroke-linejoin="round"/>
</svg>
