<svg width="12" height="12" viewBox="0 0 12 12" fill="none" xmlns="http://www.w3.org/2000/svg">
<path d="M2 1L0.5 3V10C0.5 10.2652 0.605357 10.5196 0.792893 10.7071C0.98043 10.8946 1.23478 11 1.5 11H8.5C8.76522 11 9.01957 10.8946 9.20711 10.7071C9.39464 10.5196 9.5 10.2652 9.5 10V3L8 1H2Z" stroke="#BEC4CA" stroke-linecap="round" stroke-linejoin="round"/>
<path d="M0.5 3H9.5" stroke="#BEC4CA" stroke-linecap="round" stroke-linejoin="round"/>
<path d="M7 5C7 5.53043 6.78929 6.03914 6.41421 6.41421C6.03914 6.78929 5.53043 7 5 7C4.46957 7 3.96086 6.78929 3.58579 6.41421C3.21071 6.03914 3 5.53043 3 5" stroke="#BEC4CA" stroke-linecap="round" stroke-linejoin="round"/>
</svg>
