<svg width="18" height="18" viewBox="0 0 18 18" fill="none" xmlns="http://www.w3.org/2000/svg">
<g clip-path="url(#clip0_161_201)">
<path d="M6.74701 16.501C7.16122 16.501 7.49702 16.1653 7.49704 15.751C7.49706 15.3368 7.16128 15.001 6.74707 15.001C6.33286 15.001 5.99706 15.3368 5.99704 15.751C5.99702 16.1652 6.33279 16.501 6.74701 16.501Z" stroke="#3F6A95" stroke-width="1.5" stroke-linecap="round" stroke-linejoin="round"/>
<path d="M14.997 16.5013C15.4112 16.5013 15.747 16.1655 15.747 15.7513C15.7471 15.3371 15.4113 15.0013 14.9971 15.0013C14.5829 15.0012 14.2471 15.337 14.247 15.7512C14.247 16.1654 14.5828 16.5012 14.997 16.5013Z" stroke="#3F6A95" stroke-width="1.5" stroke-linecap="round" stroke-linejoin="round"/>
<path d="M0.747559 0.750732L3.74756 0.75086L5.75713 10.7934C5.8257 11.1387 6.01353 11.4489 6.28775 11.6697C6.56197 11.8905 6.9051 12.0077 7.25708 12.001L14.5471 12.0013C14.8991 12.0081 15.2422 11.8908 15.5164 11.6701C15.7907 11.4493 15.9785 11.1392 16.0471 10.7939L17.2474 4.50144L4.4974 4.50089" stroke="#3F6A95" stroke-width="1.5" stroke-linecap="round" stroke-linejoin="round"/>
</g>
<defs>
<clipPath id="clip0_161_201">
<rect width="18" height="18" fill="white" transform="translate(-0.00244141 0.000732422)"/>
</clipPath>
</defs>
</svg>
