<svg width="19" height="19" viewBox="0 0 19 19" fill="none" xmlns="http://www.w3.org/2000/svg">
<g clip-path="url(#clip0_161_263)">
<path d="M3.23438 4.56079H4.73438H16.7344" stroke="#636D77" stroke-width="2" stroke-linecap="round" stroke-linejoin="round"/>
<path d="M15.2344 4.56079V15.0608C15.2344 15.4586 15.0763 15.8401 14.795 16.1215C14.5137 16.4028 14.1322 16.5608 13.7344 16.5608H6.23438C5.83655 16.5608 5.45502 16.4028 5.17371 16.1215C4.89241 15.8401 4.73438 15.4586 4.73438 15.0608V4.56079M6.98438 4.56079V3.06079C6.98438 2.66297 7.14241 2.28144 7.42372 2.00013C7.70502 1.71883 8.08655 1.56079 8.48438 1.56079H11.4844C11.8822 1.56079 12.2637 1.71883 12.545 2.00013C12.8263 2.28144 12.9844 2.66297 12.9844 3.06079V4.56079" stroke="#636D77" stroke-width="2" stroke-linecap="round" stroke-linejoin="round"/>
</g>
<defs>
<clipPath id="clip0_161_263">
<rect width="18" height="18" fill="white" transform="translate(0.984375 0.060791)"/>
</clipPath>
</defs>
</svg>
