<svg width="19" height="19" viewBox="0 0 19 19" fill="none" xmlns="http://www.w3.org/2000/svg">
<g clip-path="url(#clip0_185_1002)">
<path d="M3.22754 4.56445H4.72754H16.7275" stroke="black" stroke-width="1.2" stroke-linecap="round" stroke-linejoin="round"/>
<path d="M15.2275 4.56445V15.0645C15.2275 15.4623 15.0695 15.8438 14.7882 16.1251C14.5069 16.4064 14.1254 16.5645 13.7275 16.5645H6.22754C5.82971 16.5645 5.44818 16.4064 5.16688 16.1251C4.88557 15.8438 4.72754 15.4623 4.72754 15.0645V4.56445M6.97754 4.56445V3.06445C6.97754 2.66663 7.13557 2.2851 7.41688 2.00379C7.69818 1.72249 8.07971 1.56445 8.47754 1.56445H11.4775C11.8754 1.56445 12.2569 1.72249 12.5382 2.00379C12.8195 2.2851 12.9775 2.66663 12.9775 3.06445V4.56445" stroke="black" stroke-width="1.2" stroke-linecap="round" stroke-linejoin="round"/>
</g>
<defs>
<clipPath id="clip0_185_1002">
<rect width="18" height="18" fill="white" transform="translate(0.977539 0.0644531)"/>
</clipPath>
</defs>
</svg>
